<svg xmlns="http://www.w3.org/2000/svg" xmlns:xlink="http://www.w3.org/1999/xlink" viewBox="0 0 162.75 63.749997" preserveAspectRatio="xMidYMid meet" version="1.0"><defs><g/><clipPath id="4703f44b12"><path d="M 0.195312 0 L 137 0 L 137 63.5 L 0.195312 63.5 Z M 0.195312 0 " clip-rule="nonzero"/></clipPath><clipPath id="7f037c49b7"><path d="M 0.195312 0 L 86.421875 0 L 86.421875 63.179688 L 0.195312 63.179688 Z M 0.195312 0 " clip-rule="nonzero"/></clipPath><clipPath id="7bae6bd901"><path d="M 14 6 L 86.421875 6 L 86.421875 57 L 14 57 Z M 14 6 " clip-rule="nonzero"/></clipPath><clipPath id="53e84792aa"><path d="M 0.195312 0 L 39 0 L 39 63.097656 L 0.195312 63.097656 Z M 0.195312 0 " clip-rule="nonzero"/></clipPath><clipPath id="0fc8cebf7c"><rect x="0" width="87" y="0" height="64"/></clipPath><clipPath id="da58e5e0f2"><path d="M 33 18 L 136.9375 18 L 136.9375 47 L 33 47 Z M 33 18 " clip-rule="nonzero"/></clipPath><clipPath id="d767c8f399"><rect x="0" width="104" y="0" height="29"/></clipPath><clipPath id="6b864f9647"><rect x="0" width="137" y="0" height="64"/></clipPath></defs><g clip-path="url(#4703f44b12)"><g transform="matrix(1, 0, 0, 1, 0.000000000000000028, 0.000000000000003647)"><g clip-path="url(#6b864f9647)"><g clip-path="url(#7f037c49b7)"><g transform="matrix(1, 0, 0, 1, 0.000000000000000028, 0.000000000000003647)"><g clip-path="url(#0fc8cebf7c)"><path fill="#07416b" d="M 39.707031 47.6875 C 39.386719 47.707031 39.066406 47.722656 38.742188 47.722656 C 29.808594 47.722656 22.566406 40.480469 22.566406 31.546875 C 22.566406 22.613281 29.808594 15.371094 38.742188 15.371094 C 39.066406 15.371094 39.386719 15.386719 39.707031 15.402344 C 31.226562 15.90625 24.503906 22.941406 24.503906 31.546875 C 24.503906 40.152344 31.226562 47.1875 39.707031 47.6875 " fill-opacity="1" fill-rule="nonzero"/><g clip-path="url(#7bae6bd901)"><path fill="#00adef" d="M 52.113281 17.589844 C 48.703125 14.398438 44.121094 12.445312 39.082031 12.445312 C 28.703125 12.445312 20.257812 20.722656 19.988281 31.035156 C 19.984375 31.203125 19.980469 31.375 19.980469 31.546875 C 19.980469 42.09375 28.53125 50.648438 39.082031 50.648438 C 44.121094 50.648438 48.703125 48.691406 52.113281 45.503906 L 70.441406 45.503906 L 57.804688 47.660156 C 53.273438 52.917969 46.566406 56.25 39.082031 56.25 C 25.4375 56.25 14.378906 45.191406 14.378906 31.546875 C 14.378906 17.902344 25.4375 6.84375 39.082031 6.84375 C 46.566406 6.84375 53.273438 10.171875 57.804688 15.433594 L 86.335938 17.589844 L 52.113281 17.589844 " fill-opacity="1" fill-rule="nonzero"/></g><path fill="#07416b" d="M 56.9375 50.523438 C 55.089844 52.980469 52.886719 55.152344 50.414062 56.976562 C 50.339844 56.945312 50.265625 56.910156 50.191406 56.875 L 48.234375 55.945312 C 51.445312 54.742188 54.40625 52.90625 56.9375 50.523438 " fill-opacity="1" fill-rule="nonzero"/><g clip-path="url(#53e84792aa)"><path fill="#07416b" d="M 13.019531 31.546875 C 13.019531 45.671875 24.316406 57.207031 38.351562 57.597656 L 36.605469 62.503906 C 36.578125 62.585938 36.542969 62.660156 36.511719 62.734375 C 34.957031 62.972656 33.363281 63.09375 31.742188 63.09375 C 30.117188 63.09375 28.523438 62.972656 26.96875 62.734375 C 26.9375 62.660156 26.90625 62.585938 26.875 62.503906 L 25.117188 57.554688 C 24.089844 54.671875 20.796875 53.308594 18.035156 54.621094 L 13.289062 56.875 C 13.214844 56.910156 13.144531 56.945312 13.070312 56.976562 C 10.488281 55.078125 8.210938 52.796875 6.3125 50.21875 C 6.34375 50.144531 6.375 50.070312 6.410156 50 L 8.667969 45.253906 C 9.980469 42.488281 8.617188 39.195312 5.734375 38.171875 L 0.78125 36.410156 C 0.703125 36.382812 0.628906 36.347656 0.550781 36.320312 C 0.316406 34.761719 0.195312 33.167969 0.195312 31.546875 C 0.195312 29.925781 0.316406 28.332031 0.550781 26.773438 C 0.628906 26.742188 0.703125 26.710938 0.78125 26.683594 L 5.734375 24.921875 C 8.617188 23.894531 9.980469 20.605469 8.667969 17.839844 L 6.410156 13.09375 C 6.375 13.023438 6.34375 12.949219 6.3125 12.875 C 8.210938 10.296875 10.488281 8.015625 13.070312 6.117188 C 13.144531 6.148438 13.214844 6.179688 13.289062 6.214844 L 18.035156 8.472656 C 20.796875 9.785156 24.089844 8.421875 25.117188 5.539062 L 26.875 0.589844 C 26.90625 0.507812 26.9375 0.433594 26.96875 0.359375 C 28.523438 0.121094 30.117188 0 31.742188 0 C 33.363281 0 34.957031 0.121094 36.511719 0.359375 C 36.542969 0.433594 36.578125 0.507812 36.605469 0.589844 L 38.351562 5.496094 C 24.316406 5.882812 13.019531 17.421875 13.019531 31.546875 " fill-opacity="1" fill-rule="nonzero"/></g><path fill="#07416b" d="M 48.234375 7.144531 L 50.191406 6.214844 C 50.265625 6.179688 50.339844 6.148438 50.414062 6.117188 C 52.886719 7.9375 55.085938 10.113281 56.9375 12.566406 C 54.40625 10.183594 51.445312 8.351562 48.234375 7.144531 " fill-opacity="1" fill-rule="nonzero"/></g></g></g><g clip-path="url(#da58e5e0f2)"><g transform="matrix(1, 0, 0, 1, 33, 18)"><g clip-path="url(#d767c8f399)"><g fill="#07416b" fill-opacity="1"><g transform="translate(0.247789, 21.757706)"><g><path d="M 1.40625 -16.46875 L 11.28125 -16.46875 C 12.925781 -16.46875 14.117188 -16.09375 14.859375 -15.34375 C 15.609375 -14.601562 15.984375 -13.410156 15.984375 -11.765625 L 15.984375 -9.640625 C 15.984375 -8.335938 15.769531 -7.328125 15.34375 -6.609375 C 14.914062 -5.890625 14.226562 -5.410156 13.28125 -5.171875 L 16.21875 0 L 11.640625 0 L 8.9375 -4.9375 L 5.640625 -4.9375 L 5.640625 0 L 1.40625 0 Z M 11.765625 -11.765625 C 11.765625 -12.703125 11.289062 -13.171875 10.34375 -13.171875 L 5.640625 -13.171875 L 5.640625 -8.234375 L 10.34375 -8.234375 C 11.289062 -8.234375 11.765625 -8.703125 11.765625 -9.640625 Z M 11.765625 -11.765625 "/></g></g></g><g fill="#07416b" fill-opacity="1"><g transform="translate(17.179444, 21.757706)"><g><path d="M 0.921875 -3.40625 C 5.210938 -3.175781 8.117188 -3.0625 9.640625 -3.0625 C 10.003906 -3.0625 10.289062 -3.164062 10.5 -3.375 C 10.707031 -3.582031 10.8125 -3.867188 10.8125 -4.234375 L 10.8125 -6.34375 L 5.40625 -6.34375 C 3.757812 -6.34375 2.5625 -6.710938 1.8125 -7.453125 C 1.070312 -8.203125 0.703125 -9.398438 0.703125 -11.046875 L 0.703125 -11.765625 C 0.703125 -13.410156 1.070312 -14.601562 1.8125 -15.34375 C 2.5625 -16.09375 3.757812 -16.46875 5.40625 -16.46875 L 13.65625 -16.46875 L 13.65625 -13.171875 L 6.34375 -13.171875 C 5.40625 -13.171875 4.9375 -12.703125 4.9375 -11.765625 L 4.9375 -11.28125 C 4.9375 -10.34375 5.40625 -9.875 6.34375 -9.875 L 10.578125 -9.875 C 12.117188 -9.875 13.25 -9.515625 13.96875 -8.796875 C 14.6875 -8.078125 15.046875 -6.945312 15.046875 -5.40625 L 15.046875 -4.234375 C 15.046875 -2.691406 14.6875 -1.5625 13.96875 -0.84375 C 13.25 -0.125 12.117188 0.234375 10.578125 0.234375 C 9.773438 0.234375 8.929688 0.21875 8.046875 0.1875 L 5.875 0.09375 C 4.28125 0.0078125 2.628906 -0.0976562 0.921875 -0.234375 Z M 0.921875 -3.40625 "/></g></g></g><g fill="#07416b" fill-opacity="1"><g transform="translate(32.935289, 21.757706)"><g/></g></g><g fill="#07416b" fill-opacity="1"><g transform="translate(39.990147, 21.757706)"><g><path d="M 5.640625 -3.296875 L 14.234375 -3.296875 L 14.234375 0 L 1.40625 0 L 1.40625 -16.46875 L 5.640625 -16.46875 Z M 5.640625 -3.296875 "/></g></g></g><g fill="#07416b" fill-opacity="1"><g transform="translate(54.452603, 21.757706)"><g><path d="M 4.34375 0 L -0.234375 0 L 6 -16.46875 L 10.703125 -16.46875 L 16.9375 0 L 12.34375 0 L 11.28125 -2.9375 L 5.40625 -2.9375 Z M 6.46875 -6 L 10.234375 -6 L 8.34375 -11.515625 Z M 6.46875 -6 "/></g></g></g><g fill="#07416b" fill-opacity="1"><g transform="translate(71.149088, 21.757706)"><g><path d="M 1.40625 -16.46875 L 10.8125 -16.46875 C 12.351562 -16.46875 13.484375 -16.117188 14.203125 -15.421875 C 14.921875 -14.722656 15.28125 -13.660156 15.28125 -12.234375 C 15.28125 -11.285156 15.078125 -10.515625 14.671875 -9.921875 C 14.265625 -9.335938 13.765625 -8.929688 13.171875 -8.703125 C 14.441406 -8.359375 15.300781 -7.507812 15.75 -6.15625 C 15.90625 -5.675781 15.984375 -5.113281 15.984375 -4.46875 C 15.984375 -2.925781 15.625 -1.796875 14.90625 -1.078125 C 14.1875 -0.359375 13.054688 0 11.515625 0 L 1.40625 0 Z M 11.765625 -5.171875 C 11.765625 -6.109375 11.289062 -6.578125 10.34375 -6.578125 L 5.640625 -6.578125 L 5.640625 -3.296875 L 10.34375 -3.296875 C 11.289062 -3.296875 11.765625 -3.765625 11.765625 -4.703125 Z M 11.046875 -11.765625 C 11.046875 -12.703125 10.578125 -13.171875 9.640625 -13.171875 L 5.640625 -13.171875 L 5.640625 -9.875 L 9.640625 -9.875 C 10.578125 -9.875 11.046875 -10.34375 11.046875 -11.28125 Z M 11.046875 -11.765625 "/></g></g></g><g fill="#07416b" fill-opacity="1"><g transform="translate(87.845573, 21.757706)"><g><path d="M 0.921875 -3.40625 C 5.210938 -3.175781 8.117188 -3.0625 9.640625 -3.0625 C 10.003906 -3.0625 10.289062 -3.164062 10.5 -3.375 C 10.707031 -3.582031 10.8125 -3.867188 10.8125 -4.234375 L 10.8125 -6.34375 L 5.40625 -6.34375 C 3.757812 -6.34375 2.5625 -6.710938 1.8125 -7.453125 C 1.070312 -8.203125 0.703125 -9.398438 0.703125 -11.046875 L 0.703125 -11.765625 C 0.703125 -13.410156 1.070312 -14.601562 1.8125 -15.34375 C 2.5625 -16.09375 3.757812 -16.46875 5.40625 -16.46875 L 13.65625 -16.46875 L 13.65625 -13.171875 L 6.34375 -13.171875 C 5.40625 -13.171875 4.9375 -12.703125 4.9375 -11.765625 L 4.9375 -11.28125 C 4.9375 -10.34375 5.40625 -9.875 6.34375 -9.875 L 10.578125 -9.875 C 12.117188 -9.875 13.25 -9.515625 13.96875 -8.796875 C 14.6875 -8.078125 15.046875 -6.945312 15.046875 -5.40625 L 15.046875 -4.234375 C 15.046875 -2.691406 14.6875 -1.5625 13.96875 -0.84375 C 13.25 -0.125 12.117188 0.234375 10.578125 0.234375 C 9.773438 0.234375 8.929688 0.21875 8.046875 0.1875 L 5.875 0.09375 C 4.28125 0.0078125 2.628906 -0.0976562 0.921875 -0.234375 Z M 0.921875 -3.40625 "/></g></g></g></g></g></g></g></g></g></svg>